<mxfile host="app.diagrams.net" modified="2023-09-27T14:33:04.190Z" agent="Mozilla/5.0 (Windows NT 10.0; Win64; x64) AppleWebKit/537.36 (KHTML, like Gecko) Chrome/117.0.0.0 Safari/537.36" etag="isl5hnmnRQILH1vOPLgu" version="21.8.2" type="github">
  <diagram id="R2lEEEUBdFMjLlhIrx00" name="Page-1">
    <mxGraphModel dx="1050" dy="1666" grid="1" gridSize="10" guides="1" tooltips="1" connect="1" arrows="1" fold="1" page="1" pageScale="1" pageWidth="850" pageHeight="1100" math="0" shadow="0" extFonts="Permanent Marker^https://fonts.googleapis.com/css?family=Permanent+Marker">
      <root>
        <mxCell id="0" />
        <mxCell id="1" parent="0" />
        <mxCell id="Kq7AM-2HFLxC5YeSjXvb-1" value="STATE" style="rounded=0;whiteSpace=wrap;html=1;" vertex="1" parent="1">
          <mxGeometry x="210" y="170" width="120" height="60" as="geometry" />
        </mxCell>
        <mxCell id="Kq7AM-2HFLxC5YeSjXvb-2" value="CONGRESS_PERSON&amp;nbsp;" style="rounded=0;whiteSpace=wrap;html=1;" vertex="1" parent="1">
          <mxGeometry x="660" y="190" width="160" height="80" as="geometry" />
        </mxCell>
        <mxCell id="Kq7AM-2HFLxC5YeSjXvb-3" value="BILL" style="rounded=0;whiteSpace=wrap;html=1;" vertex="1" parent="1">
          <mxGeometry x="365" y="490" width="120" height="60" as="geometry" />
        </mxCell>
        <mxCell id="Kq7AM-2HFLxC5YeSjXvb-4" value="STATEâ€™s Name" style="ellipse;whiteSpace=wrap;html=1;" vertex="1" parent="1">
          <mxGeometry x="20" y="80" width="120" height="80" as="geometry" />
        </mxCell>
        <mxCell id="Kq7AM-2HFLxC5YeSjXvb-5" value="Region" style="ellipse;whiteSpace=wrap;html=1;" vertex="1" parent="1">
          <mxGeometry x="170" y="-10" width="120" height="80" as="geometry" />
        </mxCell>
        <mxCell id="Kq7AM-2HFLxC5YeSjXvb-6" value="Name" style="ellipse;whiteSpace=wrap;html=1;" vertex="1" parent="1">
          <mxGeometry x="550" y="50" width="120" height="80" as="geometry" />
        </mxCell>
        <mxCell id="Kq7AM-2HFLxC5YeSjXvb-7" value="District" style="ellipse;whiteSpace=wrap;html=1;" vertex="1" parent="1">
          <mxGeometry x="710" y="30" width="120" height="80" as="geometry" />
        </mxCell>
        <mxCell id="Kq7AM-2HFLxC5YeSjXvb-8" value="Start_date" style="ellipse;whiteSpace=wrap;html=1;" vertex="1" parent="1">
          <mxGeometry x="880" y="100" width="120" height="80" as="geometry" />
        </mxCell>
        <mxCell id="Kq7AM-2HFLxC5YeSjXvb-9" value="political Party" style="ellipse;whiteSpace=wrap;html=1;" vertex="1" parent="1">
          <mxGeometry x="890" y="260" width="120" height="80" as="geometry" />
        </mxCell>
        <mxCell id="Kq7AM-2HFLxC5YeSjXvb-10" value="Bill_name" style="ellipse;whiteSpace=wrap;html=1;" vertex="1" parent="1">
          <mxGeometry x="180" y="400" width="120" height="80" as="geometry" />
        </mxCell>
        <mxCell id="Kq7AM-2HFLxC5YeSjXvb-11" value="Date_of_vote" style="ellipse;whiteSpace=wrap;html=1;" vertex="1" parent="1">
          <mxGeometry x="150" y="540" width="120" height="80" as="geometry" />
        </mxCell>
        <mxCell id="Kq7AM-2HFLxC5YeSjXvb-12" value="Passed_or_failed&amp;nbsp;" style="ellipse;whiteSpace=wrap;html=1;" vertex="1" parent="1">
          <mxGeometry x="270" y="640" width="120" height="80" as="geometry" />
        </mxCell>
        <mxCell id="Kq7AM-2HFLxC5YeSjXvb-14" value="Vote" style="rounded=0;whiteSpace=wrap;html=1;" vertex="1" parent="1">
          <mxGeometry x="790" y="530" width="120" height="60" as="geometry" />
        </mxCell>
        <mxCell id="Kq7AM-2HFLxC5YeSjXvb-15" value="voting results" style="ellipse;whiteSpace=wrap;html=1;" vertex="1" parent="1">
          <mxGeometry x="910" y="610" width="120" height="80" as="geometry" />
        </mxCell>
        <mxCell id="Kq7AM-2HFLxC5YeSjXvb-17" value="Votes_On" style="rhombus;whiteSpace=wrap;html=1;" vertex="1" parent="1">
          <mxGeometry x="730" y="360" width="80" height="80" as="geometry" />
        </mxCell>
        <mxCell id="Kq7AM-2HFLxC5YeSjXvb-18" value="have_Vote" style="rhombus;whiteSpace=wrap;html=1;" vertex="1" parent="1">
          <mxGeometry x="580" y="530" width="80" height="80" as="geometry" />
        </mxCell>
        <mxCell id="Kq7AM-2HFLxC5YeSjXvb-19" value="Represents" style="rhombus;whiteSpace=wrap;html=1;" vertex="1" parent="1">
          <mxGeometry x="450" y="180" width="80" height="80" as="geometry" />
        </mxCell>
      </root>
    </mxGraphModel>
  </diagram>
</mxfile>
